<mxfile host="app.diagrams.net" modified="2024-06-11T05:44:57.290Z" agent="Mozilla/5.0 (Windows NT 10.0; Win64; x64) AppleWebKit/537.36 (KHTML, like Gecko) Chrome/125.0.0.0 Safari/537.36" etag="nSYs1mSGBMzWSAT3br0t" version="24.5.2" type="github">
  <diagram name="Page-1" id="Vr-gPrzB_b16huZ8kLhw">
    <mxGraphModel dx="1257" dy="609" grid="1" gridSize="10" guides="1" tooltips="1" connect="1" arrows="1" fold="1" page="1" pageScale="1" pageWidth="827" pageHeight="1169" math="0" shadow="0">
      <root>
        <mxCell id="0" />
        <mxCell id="1" parent="0" />
        <mxCell id="ENULAZv2iXGpGe3w34U2-3" value="" style="whiteSpace=wrap;html=1;" vertex="1" parent="1">
          <mxGeometry x="250" y="70" width="240" height="940" as="geometry" />
        </mxCell>
        <mxCell id="ENULAZv2iXGpGe3w34U2-6" value="&lt;font style=&quot;font-size: 18px;&quot;&gt;Buyzon&lt;/font&gt;" style="text;strokeColor=none;align=center;fillColor=none;html=1;verticalAlign=middle;whiteSpace=wrap;rounded=0;" vertex="1" parent="1">
          <mxGeometry x="340" y="80" width="60" height="30" as="geometry" />
        </mxCell>
        <mxCell id="ENULAZv2iXGpGe3w34U2-7" value="" style="ellipse;whiteSpace=wrap;html=1;aspect=fixed;" vertex="1" parent="1">
          <mxGeometry x="310" y="135" width="115" height="115" as="geometry" />
        </mxCell>
        <mxCell id="ENULAZv2iXGpGe3w34U2-11" value="&lt;font style=&quot;font-size: 12px;&quot;&gt;View All Products&lt;/font&gt;" style="text;strokeColor=none;align=center;fillColor=none;html=1;verticalAlign=middle;whiteSpace=wrap;rounded=0;" vertex="1" parent="1">
          <mxGeometry x="340" y="180" width="60" height="30" as="geometry" />
        </mxCell>
        <mxCell id="ENULAZv2iXGpGe3w34U2-13" value="" style="ellipse;whiteSpace=wrap;html=1;aspect=fixed;" vertex="1" parent="1">
          <mxGeometry x="310" y="290" width="110" height="110" as="geometry" />
        </mxCell>
        <mxCell id="ENULAZv2iXGpGe3w34U2-14" value="&lt;font style=&quot;font-size: 12px;&quot;&gt;Detail view of Product&lt;/font&gt;" style="text;strokeColor=none;align=center;fillColor=none;html=1;verticalAlign=middle;whiteSpace=wrap;rounded=0;" vertex="1" parent="1">
          <mxGeometry x="340" y="330" width="60" height="30" as="geometry" />
        </mxCell>
        <mxCell id="ENULAZv2iXGpGe3w34U2-15" value="" style="ellipse;whiteSpace=wrap;html=1;aspect=fixed;" vertex="1" parent="1">
          <mxGeometry x="334" y="440" width="80" height="80" as="geometry" />
        </mxCell>
        <mxCell id="ENULAZv2iXGpGe3w34U2-17" value="User Cart" style="text;strokeColor=none;align=center;fillColor=none;html=1;verticalAlign=middle;whiteSpace=wrap;rounded=0;" vertex="1" parent="1">
          <mxGeometry x="340" y="465" width="60" height="30" as="geometry" />
        </mxCell>
        <mxCell id="ENULAZv2iXGpGe3w34U2-18" value="" style="ellipse;whiteSpace=wrap;html=1;aspect=fixed;" vertex="1" parent="1">
          <mxGeometry x="334" y="550" width="80" height="80" as="geometry" />
        </mxCell>
        <mxCell id="ENULAZv2iXGpGe3w34U2-19" value="user wishlist" style="text;strokeColor=none;align=center;fillColor=none;html=1;verticalAlign=middle;whiteSpace=wrap;rounded=0;" vertex="1" parent="1">
          <mxGeometry x="344" y="575" width="60" height="30" as="geometry" />
        </mxCell>
        <mxCell id="ENULAZv2iXGpGe3w34U2-20" value="" style="ellipse;whiteSpace=wrap;html=1;aspect=fixed;" vertex="1" parent="1">
          <mxGeometry x="334" y="655" width="80" height="80" as="geometry" />
        </mxCell>
        <mxCell id="ENULAZv2iXGpGe3w34U2-21" value="User Info" style="text;strokeColor=none;align=center;fillColor=none;html=1;verticalAlign=middle;whiteSpace=wrap;rounded=0;" vertex="1" parent="1">
          <mxGeometry x="344" y="680" width="60" height="30" as="geometry" />
        </mxCell>
        <mxCell id="ENULAZv2iXGpGe3w34U2-22" value="" style="ellipse;whiteSpace=wrap;html=1;aspect=fixed;" vertex="1" parent="1">
          <mxGeometry x="334" y="870" width="80" height="80" as="geometry" />
        </mxCell>
        <mxCell id="ENULAZv2iXGpGe3w34U2-23" value="" style="ellipse;whiteSpace=wrap;html=1;aspect=fixed;" vertex="1" parent="1">
          <mxGeometry x="334" y="760" width="80" height="80" as="geometry" />
        </mxCell>
        <mxCell id="ENULAZv2iXGpGe3w34U2-25" value="Search Products" style="text;strokeColor=none;align=center;fillColor=none;html=1;verticalAlign=middle;whiteSpace=wrap;rounded=0;" vertex="1" parent="1">
          <mxGeometry x="344" y="785" width="60" height="30" as="geometry" />
        </mxCell>
        <mxCell id="ENULAZv2iXGpGe3w34U2-27" value="Sort Product" style="text;strokeColor=none;align=center;fillColor=none;html=1;verticalAlign=middle;whiteSpace=wrap;rounded=0;" vertex="1" parent="1">
          <mxGeometry x="344" y="895" width="60" height="30" as="geometry" />
        </mxCell>
        <mxCell id="ENULAZv2iXGpGe3w34U2-30" style="edgeStyle=none;rounded=0;orthogonalLoop=1;jettySize=auto;html=1;" edge="1" parent="1" source="ENULAZv2iXGpGe3w34U2-28" target="ENULAZv2iXGpGe3w34U2-7">
          <mxGeometry relative="1" as="geometry" />
        </mxCell>
        <mxCell id="ENULAZv2iXGpGe3w34U2-31" style="edgeStyle=none;rounded=0;orthogonalLoop=1;jettySize=auto;html=1;" edge="1" parent="1" source="ENULAZv2iXGpGe3w34U2-28" target="ENULAZv2iXGpGe3w34U2-13">
          <mxGeometry relative="1" as="geometry" />
        </mxCell>
        <mxCell id="ENULAZv2iXGpGe3w34U2-32" style="edgeStyle=none;rounded=0;orthogonalLoop=1;jettySize=auto;html=1;" edge="1" parent="1" source="ENULAZv2iXGpGe3w34U2-28" target="ENULAZv2iXGpGe3w34U2-17">
          <mxGeometry relative="1" as="geometry" />
        </mxCell>
        <mxCell id="ENULAZv2iXGpGe3w34U2-35" style="edgeStyle=none;rounded=0;orthogonalLoop=1;jettySize=auto;html=1;entryX=0;entryY=0.5;entryDx=0;entryDy=0;" edge="1" parent="1" source="ENULAZv2iXGpGe3w34U2-28" target="ENULAZv2iXGpGe3w34U2-20">
          <mxGeometry relative="1" as="geometry" />
        </mxCell>
        <mxCell id="ENULAZv2iXGpGe3w34U2-36" style="edgeStyle=none;rounded=0;orthogonalLoop=1;jettySize=auto;html=1;entryX=0;entryY=0.5;entryDx=0;entryDy=0;" edge="1" parent="1" source="ENULAZv2iXGpGe3w34U2-28" target="ENULAZv2iXGpGe3w34U2-23">
          <mxGeometry relative="1" as="geometry" />
        </mxCell>
        <mxCell id="ENULAZv2iXGpGe3w34U2-37" style="edgeStyle=none;rounded=0;orthogonalLoop=1;jettySize=auto;html=1;entryX=0;entryY=0.5;entryDx=0;entryDy=0;" edge="1" parent="1" source="ENULAZv2iXGpGe3w34U2-28" target="ENULAZv2iXGpGe3w34U2-22">
          <mxGeometry relative="1" as="geometry" />
        </mxCell>
        <mxCell id="ENULAZv2iXGpGe3w34U2-28" value="User" style="shape=umlActor;verticalLabelPosition=bottom;verticalAlign=top;html=1;outlineConnect=0;" vertex="1" parent="1">
          <mxGeometry x="70" y="560" width="30" height="60" as="geometry" />
        </mxCell>
        <mxCell id="ENULAZv2iXGpGe3w34U2-34" style="edgeStyle=none;rounded=0;orthogonalLoop=1;jettySize=auto;html=1;entryX=0.03;entryY=0.687;entryDx=0;entryDy=0;entryPerimeter=0;" edge="1" parent="1" source="ENULAZv2iXGpGe3w34U2-28" target="ENULAZv2iXGpGe3w34U2-18">
          <mxGeometry relative="1" as="geometry" />
        </mxCell>
      </root>
    </mxGraphModel>
  </diagram>
</mxfile>
